<svg xmlns="http://www.w3.org/2000/svg" xmlns:xlink="http://www.w3.org/1999/xlink" viewBox="0 0 1000 1000"><defs><style>.cls-1{fill:url(#linear-gradient);}.cls-2{fill:url(#linear-gradient-2);}.cls-3{fill:url(#linear-gradient-3);}</style><linearGradient id="linear-gradient" x1="108.77" y1="405.9" x2="264.5" y2="420.15" gradientTransform="translate(41.76 -19.77) rotate(4.4)" gradientUnits="userSpaceOnUse"><stop offset="0.02" stop-color="#fb050f"/><stop offset="0.25" stop-color="#9d051f"/><stop offset="0.55" stop-color="#5b304b"/><stop offset="0.85" stop-color="#1c5975"/><stop offset="1" stop-color="#036985"/></linearGradient><linearGradient id="linear-gradient-2" x1="243.56" y1="398.34" x2="272.27" y2="561.28" gradientTransform="translate(41.76 -19.77) rotate(4.4)" gradientUnits="userSpaceOnUse"><stop offset="0" stop-color="#fb050f"/><stop offset="0.16" stop-color="#be212f"/><stop offset="0.44" stop-color="#595063"/><stop offset="0.64" stop-color="#196e83"/><stop offset="0.73" stop-color="#007990"/><stop offset="0.82" stop-color="#046e87"/><stop offset="0.98" stop-color="#0f516f"/><stop offset="1" stop-color="#104d6c"/></linearGradient><linearGradient id="linear-gradient-3" x1="133.07" y1="502.06" x2="311.61" y2="533.35" xlink:href="#linear-gradient-2"/></defs><g id="Layer_2" data-name="Layer 2"><path class="cls-1" d="M259.69,400c-3.26-.5-14.44-2.31-17.78-2.56A140.53,140.53,0,0,0,143,428a138.66,138.66,0,0,0-14.49,13,142.68,142.68,0,0,1,.21-43.42,87.76,87.76,0,0,1,77-35.53C222,363.72,250.8,375.64,259.69,400Z"/><path class="cls-2" d="M201.9,361.82c63,1.95,100.54,49.2,84.2,103.31-9.49,32.77,39.51,62.81,30.19,89.38C310.15,572,288,573,261.52,561.45c0,0-33.09-36.79-7.63-106.11C263,431.62,277.89,377.38,201.9,361.82Z"/><path class="cls-3" d="M317.16,548.22c1,4.9-9.21,52.94-61.12,58.93-72.82,4.24-132.79-55.19-143.2-117.68h0c-1.4-8.3-5.3-60.94,15.83-91.82a143.61,143.61,0,0,0-.19,43.58A138.15,138.15,0,0,0,158,508.86a141.66,141.66,0,0,0,26.33,25.32,140.78,140.78,0,0,0,72.88,27.09C278.11,562.88,305.75,555.29,317.16,548.22Z"/></g><g id="Layer_4" data-name="Layer 4"><path d="M401.71,413.35l-5.42,3.58a14.35,14.35,0,0,0-3.58-4.59,11,11,0,0,0-6.88-2.11,10.59,10.59,0,0,0-7.44,2.61,8.86,8.86,0,0,0-2.84,6.84,7.12,7.12,0,0,0,2.29,5.33,21.93,21.93,0,0,0,6.43,3.85l5.87,2.57q6.53,2.85,9.46,5.79a15,15,0,0,1,4.4,11.1,17.9,17.9,0,0,1-5.5,13.59,19.35,19.35,0,0,1-13.87,5.23q-8.25,0-13.31-4.95a21.52,21.52,0,0,1-5.69-10.84l6.61-1.83a13.87,13.87,0,0,0,3.67,7.8,12,12,0,0,0,8.82,3.4q5.86,0,9.08-3.54A12.25,12.25,0,0,0,397,448.6a9.21,9.21,0,0,0-3-7.16c-1.17-1.1-3.61-2.51-7.35-4.22l-5.5-2.57a30.13,30.13,0,0,1-8.17-5,13.3,13.3,0,0,1-4.23-10,14.7,14.7,0,0,1,4.82-11.43,17.7,17.7,0,0,1,12.35-4.36,16.91,16.91,0,0,1,15.79,9.55Z"/><path d="M466.61,404.81v6.43h-25v18.17h24.24v6.43H441.64v23.78h25V466H434.85V404.81Z"/><path d="M538.4,466l-7.16-17.26H505.17L497.82,466h-7.53l28.19-64.17L545.93,466Zm-30.57-23.68h20.75l-10.29-24.51Z"/><path d="M577.78,466h-7L581,401.41,604.5,453.1l24-51.78L638,466h-7l-5.79-42.59L604.4,468.61l-20.56-45.16Z"/><path d="M670.5,404.81h6.79v54.81h16.89V466H670.5Z"/><path d="M753.48,404.81v6.43h-25v18.17h24.24v6.43H728.51v23.78h25V466H721.72V404.81Z"/><path d="M817.1,413.35l-5.42,3.58a14.21,14.21,0,0,0-3.58-4.59,11,11,0,0,0-6.88-2.11,10.59,10.59,0,0,0-7.44,2.61,8.89,8.89,0,0,0-2.84,6.84,7.12,7.12,0,0,0,2.29,5.33,21.93,21.93,0,0,0,6.43,3.85l5.87,2.57q6.53,2.85,9.46,5.79a15,15,0,0,1,4.41,11.1,17.91,17.91,0,0,1-5.51,13.59A19.33,19.33,0,0,1,800,467.14q-8.26,0-13.32-4.95A21.52,21.52,0,0,1,781,451.35l6.61-1.83a13.89,13.89,0,0,0,3.68,7.8,11.93,11.93,0,0,0,8.81,3.4q5.86,0,9.09-3.54a12.28,12.28,0,0,0,3.21-8.58,9.21,9.21,0,0,0-3-7.16q-1.74-1.65-7.34-4.22l-5.51-2.57a30.13,30.13,0,0,1-8.17-5,13.3,13.3,0,0,1-4.23-10A14.7,14.7,0,0,1,789,408.16a17.7,17.7,0,0,1,12.35-4.36,17.31,17.31,0,0,1,9.82,2.75A17.5,17.5,0,0,1,817.1,413.35Z"/><path d="M883,413.35l-5.41,3.58a14.49,14.49,0,0,0-3.58-4.59,11,11,0,0,0-6.89-2.11,10.54,10.54,0,0,0-7.43,2.61,8.87,8.87,0,0,0-2.85,6.84,7.09,7.09,0,0,0,2.3,5.33,21.72,21.72,0,0,0,6.42,3.85l5.88,2.57q6.51,2.85,9.45,5.79a15,15,0,0,1,4.41,11.1,17.91,17.91,0,0,1-5.51,13.59,19.31,19.31,0,0,1-13.86,5.23q-8.27,0-13.31-4.95a21.44,21.44,0,0,1-5.69-10.84l6.6-1.83a13.89,13.89,0,0,0,3.68,7.8,11.93,11.93,0,0,0,8.81,3.4q5.88,0,9.09-3.54a12.28,12.28,0,0,0,3.21-8.58,9.21,9.21,0,0,0-3-7.16q-1.74-1.65-7.34-4.22l-5.51-2.57a30.29,30.29,0,0,1-8.17-5,13.29,13.29,0,0,1-4.22-10,14.67,14.67,0,0,1,4.82-11.43q4.82-4.37,12.34-4.36a17.36,17.36,0,0,1,9.83,2.75A17.55,17.55,0,0,1,883,413.35Z"/><path d="M415.75,496v8.44a28.16,28.16,0,0,0-8-5.69,25.27,25.27,0,0,0-10.56-2.39,23.26,23.26,0,0,0-17.58,7.39,25.34,25.34,0,0,0-7,18.13q0,11.57,7.66,18.27a25.25,25.25,0,0,0,17,6.7A24.51,24.51,0,0,0,408.69,544a27.21,27.21,0,0,0,7.06-5.14v8.44a31,31,0,0,1-18.45,6q-13.59,0-22.63-9.09a30.5,30.5,0,0,1-9-22.4q0-13.68,9.14-22.76t22.9-9.09A29.13,29.13,0,0,1,415.75,496Z"/><path d="M446.6,490.94h6.79v54.8h16.89v6.43H446.6Z"/><path d="M545.88,544.18a32.71,32.71,0,0,1-45.26,0,30.43,30.43,0,0,1-9.22-22.58q0-13.59,9.27-22.63a32.72,32.72,0,0,1,45.16,0q9.27,9,9.28,22.63A30.43,30.43,0,0,1,545.88,544.18Zm-5-40.48a24.81,24.81,0,0,0-35.25,0,25.7,25.7,0,0,0,0,35.8,24.83,24.83,0,0,0,35.25,0,25.72,25.72,0,0,0,0-35.8Z"/><path d="M592.74,490.94v37.54c0,2.33,0,4.13.14,5.42a15.89,15.89,0,0,0,1.29,4.73,12,12,0,0,0,3.44,4.73,16.38,16.38,0,0,0,20.19,0,12.13,12.13,0,0,0,3.45-4.73,16.13,16.13,0,0,0,1.28-4.73c.09-1.29.14-3.09.14-5.42V490.94h6.79v39.38q0,9.36-3.85,14.69a19.63,19.63,0,0,1-7.48,6.06,25.78,25.78,0,0,1-20.84,0A19.59,19.59,0,0,1,589.8,545q-3.85-5.32-3.85-14.69V490.94Z"/><path d="M663.61,552.17V490.94H676.1q14.13,0,22.58,7.16,10.47,8.72,10.47,23.5a29.52,29.52,0,0,1-10.74,23.5,28.09,28.09,0,0,1-9.46,5.42A42.47,42.47,0,0,1,676,552.17Zm6.8-54.81v48.38h6q10.93,0,17.54-5.51,8.26-7,8.26-18.63,0-11-7.07-17.63t-18.73-6.61Z"/></g></svg>